# MagicaVoxel @ Ephtracy

# group
o 

# material
mtllib mother.mtl
usemtl palette

# normals
vn -1 0 0
vn 1 0 0
vn 0 0 1
vn 0 0 -1
vn 0 -1 0
vn 0 1 0

# texcoords
vt 0.0292969 0.5
vt 0.0605469 0.5
vt 0.275391 0.5
vt 0.533203 0.5
vt 0.537109 0.5
vt 0.962891 0.5
vt 0.978516 0.5
vt 0.986328 0.5
vt 0.994141 0.5

# verts
v 1.3 2.7 -1.1
v 1.3 2.7 -1.2
v 1.3 3.1 -1.1
v 1.3 3.1 -1.2
v 1.4 2.3 -1.2
v 1.4 2.3 -1.3
v 1.4 2.6 -1.2
v 1.4 2.6 -1.3
v 1.4 2.6 -1.4
v 1.4 2.7 -1.2
v 1.4 2.7 -1.3
v 1.4 2.7 -1.4
v 1.4 2.7 -1.5
v 1.4 2.8 -1.2
v 1.4 2.8 -1.5
v 1.4 3.1 -1.1
v 1.4 3.1 -1.2
v 1.4 3.2 -1.1
v 1.4 3.2 -1.5
v 1.5 2.1 -1.2
v 1.5 2.1 -1.3
v 1.5 2.2 -1.2
v 1.5 2.2 -1.3
v 1.5 2.3 -1.1
v 1.5 2.3 -1.2
v 1.5 2.3 -1.3
v 1.5 2.3 -1.4
v 1.5 2.6 -1.2
v 1.5 2.6 -1.3
v 1.5 2.6 -1.4
v 1.5 2.7 -1
v 1.5 2.7 -1.1
v 1.5 2.7 -1.2
v 1.5 2.8 -1
v 1.5 2.8 -1.1
v 1.8 2.1 -1.2
v 1.8 2.1 -1.3
v 1.8 2.2 -1.2
v 1.8 2.2 -1.3
v 1.8 2.3 -1.2
v 1.8 2.3 -1.3
v 1.6 2.1 -1.2
v 1.6 2.1 -1.3
v 1.6 2.2 -1.2
v 1.6 2.2 -1.3
v 1.6 2.3 -1.2
v 1.6 2.3 -1.3
v 1.9 2.1 -1.2
v 1.9 2.1 -1.3
v 1.9 2.2 -1.2
v 1.9 2.2 -1.3
v 1.9 2.3 -1.1
v 1.9 2.3 -1.2
v 1.9 2.3 -1.3
v 1.9 2.3 -1.4
v 1.9 2.6 -1.2
v 1.9 2.6 -1.3
v 1.9 2.6 -1.4
v 1.9 2.7 -1
v 1.9 2.7 -1.1
v 1.9 2.7 -1.2
v 1.9 2.8 -1
v 1.9 2.8 -1.1
v 2 2.3 -1.2
v 2 2.3 -1.3
v 2 2.6 -1.2
v 2 2.6 -1.3
v 2 2.6 -1.4
v 2 2.7 -1.2
v 2 2.7 -1.3
v 2 2.7 -1.4
v 2 2.7 -1.5
v 2 2.8 -1.2
v 2 2.8 -1.4
v 2 2.8 -1.5
v 2 3.1 -1.1
v 2 3.1 -1.2
v 2 3.2 -1.1
v 2 3.2 -1.5
v 2.1 2.7 -1.1
v 2.1 2.7 -1.2
v 2.1 3.1 -1.1
v 2.1 3.1 -1.2
v 1.5 2.7 -1
v 1.5 2.8 -1
v 1.9 2.7 -1
v 1.9 2.8 -1
v 1.3 2.7 -1.1
v 1.3 3.1 -1.1
v 1.4 2.7 -1.1
v 1.4 2.8 -1.1
v 1.4 3.1 -1.1
v 1.4 3.2 -1.1
v 1.5 2.3 -1.1
v 1.5 2.7 -1.1
v 1.5 2.8 -1.1
v 1.5 2.9 -1.1
v 1.5 3 -1.1
v 1.6 2.8 -1.1
v 1.6 2.9 -1.1
v 1.6 3 -1.1
v 1.8 2.8 -1.1
v 1.8 2.9 -1.1
v 1.8 3 -1.1
v 1.9 2.3 -1.1
v 1.9 2.7 -1.1
v 1.9 2.8 -1.1
v 1.9 2.9 -1.1
v 1.9 3 -1.1
v 2 2.7 -1.1
v 2 2.8 -1.1
v 2 3.1 -1.1
v 2 3.2 -1.1
v 2.1 2.7 -1.1
v 2.1 3.1 -1.1
v 1.4 2.3 -1.2
v 1.4 2.6 -1.2
v 1.4 2.7 -1.2
v 1.5 2.1 -1.2
v 1.5 2.2 -1.2
v 1.5 2.3 -1.2
v 1.5 2.6 -1.2
v 1.5 2.7 -1.2
v 1.6 2.1 -1.2
v 1.6 2.2 -1.2
v 1.6 2.3 -1.2
v 1.8 2.1 -1.2
v 1.8 2.2 -1.2
v 1.8 2.3 -1.2
v 1.9 2.1 -1.2
v 1.9 2.2 -1.2
v 1.9 2.3 -1.2
v 1.9 2.6 -1.2
v 1.9 2.7 -1.2
v 2 2.3 -1.2
v 2 2.6 -1.2
v 2 2.7 -1.2
v 1.3 2.7 -1.2
v 1.3 3.1 -1.2
v 1.4 2.7 -1.2
v 1.4 2.8 -1.2
v 1.4 3.1 -1.2
v 2 2.7 -1.2
v 2 2.8 -1.2
v 2 3.1 -1.2
v 2.1 2.7 -1.2
v 2.1 3.1 -1.2
v 1.4 2.3 -1.3
v 1.4 2.6 -1.3
v 1.5 2.1 -1.3
v 1.5 2.2 -1.3
v 1.5 2.3 -1.3
v 1.5 2.6 -1.3
v 1.6 2.1 -1.3
v 1.6 2.2 -1.3
v 1.6 2.3 -1.3
v 1.8 2.1 -1.3
v 1.8 2.2 -1.3
v 1.8 2.3 -1.3
v 1.9 2.1 -1.3
v 1.9 2.2 -1.3
v 1.9 2.3 -1.3
v 1.9 2.6 -1.3
v 2 2.3 -1.3
v 2 2.6 -1.3
v 1.4 2.6 -1.4
v 1.4 2.7 -1.4
v 1.5 2.3 -1.4
v 1.5 2.6 -1.4
v 1.5 2.7 -1.4
v 1.9 2.3 -1.4
v 1.9 2.6 -1.4
v 1.9 2.7 -1.4
v 2 2.6 -1.4
v 2 2.7 -1.4
v 1.4 2.7 -1.5
v 1.4 2.8 -1.5
v 1.4 3.2 -1.5
v 2 2.7 -1.5
v 2 2.8 -1.5
v 2 3.2 -1.5
v 1.5 2.1 -1.2
v 1.6 2.1 -1.2
v 1.8 2.1 -1.2
v 1.9 2.1 -1.2
v 1.5 2.1 -1.3
v 1.6 2.1 -1.3
v 1.8 2.1 -1.3
v 1.9 2.1 -1.3
v 1.5 2.3 -1.1
v 1.9 2.3 -1.1
v 1.4 2.3 -1.2
v 1.5 2.3 -1.2
v 1.6 2.3 -1.2
v 1.8 2.3 -1.2
v 1.9 2.3 -1.2
v 2 2.3 -1.2
v 1.4 2.3 -1.3
v 1.5 2.3 -1.3
v 1.6 2.3 -1.3
v 1.8 2.3 -1.3
v 1.9 2.3 -1.3
v 2 2.3 -1.3
v 1.5 2.3 -1.4
v 1.9 2.3 -1.4
v 1.4 2.6 -1.3
v 1.5 2.6 -1.3
v 1.9 2.6 -1.3
v 2 2.6 -1.3
v 1.4 2.6 -1.4
v 1.5 2.6 -1.4
v 1.9 2.6 -1.4
v 2 2.6 -1.4
v 1.5 2.7 -1
v 1.9 2.7 -1
v 1.3 2.7 -1.1
v 1.4 2.7 -1.1
v 1.5 2.7 -1.1
v 1.9 2.7 -1.1
v 2 2.7 -1.1
v 2.1 2.7 -1.1
v 1.3 2.7 -1.2
v 1.4 2.7 -1.2
v 1.5 2.7 -1.2
v 1.9 2.7 -1.2
v 2 2.7 -1.2
v 2.1 2.7 -1.2
v 1.4 2.7 -1.4
v 1.5 2.7 -1.4
v 1.9 2.7 -1.4
v 2 2.7 -1.4
v 1.4 2.7 -1.5
v 2 2.7 -1.5
v 1.5 2.8 -1
v 1.9 2.8 -1
v 1.5 2.8 -1.1
v 1.6 2.8 -1.1
v 1.8 2.8 -1.1
v 1.9 2.8 -1.1
v 1.3 3.1 -1.1
v 1.4 3.1 -1.1
v 2 3.1 -1.1
v 2.1 3.1 -1.1
v 1.3 3.1 -1.2
v 1.4 3.1 -1.2
v 2 3.1 -1.2
v 2.1 3.1 -1.2
v 1.4 3.2 -1.1
v 2 3.2 -1.1
v 1.4 3.2 -1.5
v 2 3.2 -1.5

# faces
f 3/9/1 2/9/1 1/9/1
f 4/9/1 2/9/1 3/9/1
f 7/2/1 6/2/1 5/2/1
f 8/2/1 6/2/1 7/2/1
f 10/5/1 8/5/1 7/5/1
f 11/4/1 9/4/1 8/4/1
f 11/5/1 8/5/1 10/5/1
f 12/4/1 9/4/1 11/4/1
f 14/4/1 11/4/1 10/4/1
f 14/4/1 13/4/1 12/4/1
f 14/4/1 12/4/1 11/4/1
f 15/4/1 13/4/1 14/4/1
f 17/9/1 15/9/1 14/9/1
f 18/9/1 17/9/1 16/9/1
f 19/9/1 15/9/1 17/9/1
f 19/9/1 17/9/1 18/9/1
f 22/2/1 21/2/1 20/2/1
f 23/2/1 21/2/1 22/2/1
f 25/9/1 23/9/1 22/9/1
f 26/9/1 23/9/1 25/9/1
f 28/5/1 25/5/1 24/5/1
f 29/5/1 27/5/1 26/5/1
f 30/5/1 27/5/1 29/5/1
f 32/5/1 28/5/1 24/5/1
f 33/5/1 28/5/1 32/5/1
f 34/4/1 32/4/1 31/4/1
f 35/4/1 32/4/1 34/4/1
f 38/2/1 37/2/1 36/2/1
f 39/2/1 37/2/1 38/2/1
f 40/9/1 39/9/1 38/9/1
f 41/9/1 39/9/1 40/9/1
f 42/2/2 43/2/2 44/2/2
f 44/2/2 43/2/2 45/2/2
f 44/9/2 45/9/2 46/9/2
f 46/9/2 45/9/2 47/9/2
f 48/2/2 49/2/2 50/2/2
f 50/2/2 49/2/2 51/2/2
f 50/9/2 51/9/2 53/9/2
f 53/9/2 51/9/2 54/9/2
f 52/5/2 53/5/2 56/5/2
f 54/5/2 55/5/2 57/5/2
f 57/5/2 55/5/2 58/5/2
f 52/5/2 56/5/2 60/5/2
f 60/5/2 56/5/2 61/5/2
f 59/4/2 60/4/2 62/4/2
f 62/4/2 60/4/2 63/4/2
f 64/2/2 65/2/2 66/2/2
f 66/2/2 65/2/2 67/2/2
f 66/5/2 67/5/2 69/5/2
f 67/4/2 68/4/2 70/4/2
f 69/5/2 67/5/2 70/5/2
f 70/4/2 68/4/2 71/4/2
f 69/3/2 70/3/2 73/3/2
f 70/3/2 71/3/2 73/3/2
f 71/4/2 72/4/2 74/4/2
f 73/3/2 71/3/2 74/3/2
f 74/4/2 72/4/2 75/4/2
f 73/9/2 74/9/2 77/9/2
f 74/9/2 75/9/2 77/9/2
f 76/9/2 77/9/2 78/9/2
f 77/9/2 75/9/2 79/9/2
f 78/9/2 77/9/2 79/9/2
f 80/9/2 81/9/2 82/9/2
f 82/9/2 81/9/2 83/9/2
f 86/4/3 85/4/3 84/4/3
f 87/4/3 85/4/3 86/4/3
f 90/9/3 89/9/3 88/9/3
f 91/9/3 89/9/3 90/9/3
f 92/9/3 89/9/3 91/9/3
f 95/4/3 91/4/3 90/4/3
f 96/9/3 93/9/3 92/9/3
f 96/9/3 92/9/3 91/9/3
f 96/4/3 91/4/3 95/4/3
f 97/9/3 93/9/3 96/9/3
f 98/9/3 93/9/3 97/9/3
f 99/2/3 97/2/3 96/2/3
f 100/8/3 98/8/3 97/8/3
f 100/2/3 97/2/3 99/2/3
f 101/9/3 93/9/3 98/9/3
f 101/8/3 98/8/3 100/8/3
f 102/1/3 100/1/3 99/1/3
f 103/2/3 101/2/3 100/2/3
f 103/1/3 100/1/3 102/1/3
f 104/9/3 93/9/3 101/9/3
f 104/2/3 101/2/3 103/2/3
f 105/5/3 95/5/3 94/5/3
f 106/5/3 95/5/3 105/5/3
f 107/2/3 103/2/3 102/2/3
f 108/8/3 104/8/3 103/8/3
f 108/2/3 103/2/3 107/2/3
f 109/9/3 93/9/3 104/9/3
f 109/8/3 104/8/3 108/8/3
f 110/4/3 107/4/3 106/4/3
f 111/9/3 108/9/3 107/9/3
f 111/4/3 107/4/3 110/4/3
f 111/9/3 109/9/3 108/9/3
f 112/9/3 93/9/3 109/9/3
f 112/9/3 109/9/3 111/9/3
f 113/9/3 93/9/3 112/9/3
f 114/9/3 111/9/3 110/9/3
f 114/9/3 112/9/3 111/9/3
f 115/9/3 112/9/3 114/9/3
f 121/2/3 117/2/3 116/2/3
f 122/5/3 118/5/3 117/5/3
f 122/2/3 117/2/3 121/2/3
f 123/5/3 118/5/3 122/5/3
f 124/2/3 120/2/3 119/2/3
f 125/9/3 121/9/3 120/9/3
f 125/2/3 120/2/3 124/2/3
f 126/9/3 121/9/3 125/9/3
f 130/2/3 128/2/3 127/2/3
f 131/9/3 129/9/3 128/9/3
f 131/2/3 128/2/3 130/2/3
f 132/9/3 129/9/3 131/9/3
f 135/2/3 133/2/3 132/2/3
f 136/5/3 134/5/3 133/5/3
f 136/2/3 133/2/3 135/2/3
f 137/5/3 134/5/3 136/5/3
f 138/9/4 139/9/4 140/9/4
f 140/9/4 139/9/4 141/9/4
f 141/9/4 139/9/4 142/9/4
f 143/9/4 144/9/4 146/9/4
f 144/9/4 145/9/4 146/9/4
f 146/9/4 145/9/4 147/9/4
f 148/2/4 149/2/4 152/2/4
f 152/2/4 149/2/4 153/2/4
f 150/2/4 151/2/4 154/2/4
f 151/9/4 152/9/4 155/9/4
f 154/2/4 151/2/4 155/2/4
f 155/9/4 152/9/4 156/9/4
f 157/2/4 158/2/4 160/2/4
f 158/9/4 159/9/4 161/9/4
f 160/2/4 158/2/4 161/2/4
f 161/9/4 159/9/4 162/9/4
f 162/2/4 163/2/4 164/2/4
f 164/2/4 163/2/4 165/2/4
f 166/4/4 167/4/4 169/4/4
f 169/4/4 167/4/4 170/4/4
f 168/5/4 169/5/4 171/5/4
f 169/5/4 170/5/4 171/5/4
f 171/5/4 170/5/4 172/5/4
f 172/5/4 170/5/4 173/5/4
f 172/4/4 173/4/4 174/4/4
f 174/4/4 173/4/4 175/4/4
f 176/4/4 177/4/4 179/4/4
f 177/9/4 178/9/4 180/9/4
f 179/4/4 177/4/4 180/4/4
f 180/9/4 178/9/4 181/9/4
f 186/2/5 183/2/5 182/2/5
f 187/2/5 183/2/5 186/2/5
f 188/2/5 185/2/5 184/2/5
f 189/2/5 185/2/5 188/2/5
f 193/5/5 191/5/5 190/5/5
f 194/5/5 191/5/5 193/5/5
f 195/5/5 191/5/5 194/5/5
f 196/5/5 191/5/5 195/5/5
f 198/2/5 193/2/5 192/2/5
f 199/2/5 193/2/5 198/2/5
f 200/6/5 195/6/5 194/6/5
f 201/6/5 195/6/5 200/6/5
f 202/2/5 197/2/5 196/2/5
f 203/2/5 197/2/5 202/2/5
f 204/5/5 201/5/5 200/5/5
f 204/5/5 202/5/5 201/5/5
f 204/5/5 200/5/5 199/5/5
f 205/5/5 202/5/5 204/5/5
f 210/4/5 207/4/5 206/4/5
f 211/4/5 207/4/5 210/4/5
f 212/4/5 209/4/5 208/4/5
f 213/4/5 209/4/5 212/4/5
f 218/4/5 215/4/5 214/4/5
f 219/4/5 215/4/5 218/4/5
f 222/9/5 217/9/5 216/9/5
f 223/4/5 218/4/5 217/4/5
f 223/9/5 217/9/5 222/9/5
f 224/4/5 218/4/5 223/4/5
f 225/4/5 220/4/5 219/4/5
f 226/9/5 221/9/5 220/9/5
f 226/4/5 220/4/5 225/4/5
f 227/9/5 221/9/5 226/9/5
f 232/4/5 229/4/5 228/4/5
f 232/4/5 231/4/5 230/4/5
f 232/4/5 230/4/5 229/4/5
f 233/4/5 231/4/5 232/4/5
f 234/4/6 235/4/6 236/4/6
f 236/4/6 235/4/6 237/4/6
f 237/4/6 235/4/6 238/4/6
f 238/4/6 235/4/6 239/4/6
f 240/9/6 241/9/6 244/9/6
f 244/9/6 241/9/6 245/9/6
f 242/9/6 243/9/6 246/9/6
f 246/9/6 243/9/6 247/9/6
f 248/9/6 249/9/6 250/9/6
f 250/9/6 249/9/6 251/9/6
